<?xml version="1.0" encoding="UTF-8" standalone="no"?>
<!DOCTYPE svg PUBLIC "-//W3C//DTD SVG 1.1//EN"
 "http://www.w3.org/Graphics/SVG/1.1/DTD/svg11.dtd">
<!-- Generated by graphviz version 2.38.0 (20140413.2041)
 -->
<!-- Title: G Pages: 1 -->
<svg width="924pt" height="2156pt"
 viewBox="0.00 0.00 924.18 2156.00" xmlns="http://www.w3.org/2000/svg" xmlns:xlink="http://www.w3.org/1999/xlink">
<g id="graph0" class="graph" transform="scale(1 1) rotate(0) translate(4 2152)">
<title>G</title>
<polygon fill="white" stroke="none" points="-4,4 -4,-2152 920.175,-2152 920.175,4 -4,4"/>
<g id="clust1" class="cluster"><title>cluster_Global</title>
<path fill="none" stroke="gray" d="M20,-44C20,-44 896.175,-44 896.175,-44 902.175,-44 908.175,-50 908.175,-56 908.175,-56 908.175,-2128 908.175,-2128 908.175,-2134 902.175,-2140 896.175,-2140 896.175,-2140 20,-2140 20,-2140 14,-2140 8,-2134 8,-2128 8,-2128 8,-56 8,-56 8,-50 14,-44 20,-44"/>
<text text-anchor="middle" x="458.088" y="-2127.2" font-family="Times,serif" font-size="11.00" fill="gray">Global</text>
</g>
<g id="clust2" class="cluster"><title>cluster_\Teknoo</title>
<path fill="none" stroke="gray" d="M28,-52C28,-52 888.175,-52 888.175,-52 894.175,-52 900.175,-58 900.175,-64 900.175,-64 900.175,-2100 900.175,-2100 900.175,-2106 894.175,-2112 888.175,-2112 888.175,-2112 28,-2112 28,-2112 22,-2112 16,-2106 16,-2100 16,-2100 16,-64 16,-64 16,-58 22,-52 28,-52"/>
<text text-anchor="middle" x="458.088" y="-2099.2" font-family="Times,serif" font-size="11.00" fill="gray">Teknoo</text>
</g>
<g id="clust3" class="cluster"><title>cluster_\Teknoo\States</title>
<path fill="none" stroke="gray" d="M36,-60C36,-60 880.175,-60 880.175,-60 886.175,-60 892.175,-66 892.175,-72 892.175,-72 892.175,-2072 892.175,-2072 892.175,-2078 886.175,-2084 880.175,-2084 880.175,-2084 36,-2084 36,-2084 30,-2084 24,-2078 24,-2072 24,-2072 24,-72 24,-72 24,-66 30,-60 36,-60"/>
<text text-anchor="middle" x="458.088" y="-2071.2" font-family="Times,serif" font-size="11.00" fill="gray">States</text>
</g>
<g id="clust4" class="cluster"><title>cluster_\Teknoo\States\LifeCycle</title>
<path fill="none" stroke="gray" d="M44,-68C44,-68 872.175,-68 872.175,-68 878.175,-68 884.175,-74 884.175,-80 884.175,-80 884.175,-2044 884.175,-2044 884.175,-2050 878.175,-2056 872.175,-2056 872.175,-2056 44,-2056 44,-2056 38,-2056 32,-2050 32,-2044 32,-2044 32,-80 32,-80 32,-74 38,-68 44,-68"/>
<text text-anchor="middle" x="458.088" y="-2043.2" font-family="Times,serif" font-size="11.00" fill="gray">LifeCycle</text>
</g>
<g id="clust5" class="cluster"><title>cluster_\Teknoo\States\LifeCycle\StatedClass</title>
<path fill="none" stroke="gray" d="M56.5,-900C56.5,-900 854.675,-900 854.675,-900 860.675,-900 866.675,-906 866.675,-912 866.675,-912 866.675,-2016 866.675,-2016 866.675,-2022 860.675,-2028 854.675,-2028 854.675,-2028 56.5,-2028 56.5,-2028 50.5,-2028 44.5,-2022 44.5,-2016 44.5,-2016 44.5,-912 44.5,-912 44.5,-906 50.5,-900 56.5,-900"/>
<text text-anchor="middle" x="455.588" y="-2015.2" font-family="Times,serif" font-size="11.00" fill="gray">StatedClass</text>
</g>
<g id="clust6" class="cluster"><title>cluster_\Teknoo\States\LifeCycle\StatedClass\Automated</title>
<path fill="none" stroke="gray" d="M64.5,-1062C64.5,-1062 846.675,-1062 846.675,-1062 852.675,-1062 858.675,-1068 858.675,-1074 858.675,-1074 858.675,-1988 858.675,-1988 858.675,-1994 852.675,-2000 846.675,-2000 846.675,-2000 64.5,-2000 64.5,-2000 58.5,-2000 52.5,-1994 52.5,-1988 52.5,-1988 52.5,-1074 52.5,-1074 52.5,-1068 58.5,-1062 64.5,-1062"/>
<text text-anchor="middle" x="455.588" y="-1987.2" font-family="Times,serif" font-size="11.00" fill="gray">Automated</text>
</g>
<g id="clust7" class="cluster"><title>cluster_\Teknoo\States\LifeCycle\StatedClass\Automated\Assertion</title>
<path fill="none" stroke="gray" d="M72.5,-1170C72.5,-1170 838.675,-1170 838.675,-1170 844.675,-1170 850.675,-1176 850.675,-1182 850.675,-1182 850.675,-1960 850.675,-1960 850.675,-1966 844.675,-1972 838.675,-1972 838.675,-1972 72.5,-1972 72.5,-1972 66.5,-1972 60.5,-1966 60.5,-1960 60.5,-1960 60.5,-1182 60.5,-1182 60.5,-1176 66.5,-1170 72.5,-1170"/>
<text text-anchor="middle" x="455.588" y="-1959.2" font-family="Times,serif" font-size="11.00" fill="gray">Assertion</text>
</g>
<g id="clust8" class="cluster"><title>cluster_\Teknoo\States\LifeCycle\StatedClass\Automated\Assertion\Property</title>
<path fill="none" stroke="gray" d="M686.675,-1278C686.675,-1278 830.675,-1278 830.675,-1278 836.675,-1278 842.675,-1284 842.675,-1290 842.675,-1290 842.675,-1932 842.675,-1932 842.675,-1938 836.675,-1944 830.675,-1944 830.675,-1944 686.675,-1944 686.675,-1944 680.675,-1944 674.675,-1938 674.675,-1932 674.675,-1932 674.675,-1290 674.675,-1290 674.675,-1284 680.675,-1278 686.675,-1278"/>
<text text-anchor="middle" x="758.675" y="-1931.2" font-family="Times,serif" font-size="11.00" fill="gray">Property</text>
</g>
<g id="clust9" class="cluster"><title>cluster_\Teknoo\States\LifeCycle\Trace</title>
<path fill="none" stroke="gray" d="M386.588,-766C386.588,-766 781.675,-766 781.675,-766 787.675,-766 793.675,-772 793.675,-778 793.675,-778 793.675,-880 793.675,-880 793.675,-886 787.675,-892 781.675,-892 781.675,-892 386.588,-892 386.588,-892 380.588,-892 374.588,-886 374.588,-880 374.588,-880 374.588,-778 374.588,-778 374.588,-772 380.588,-766 386.588,-766"/>
<text text-anchor="middle" x="584.131" y="-879.2" font-family="Times,serif" font-size="11.00" fill="gray">Trace</text>
</g>
<g id="clust10" class="cluster"><title>cluster_\Teknoo\States\LifeCycle\Scenario</title>
<path fill="none" stroke="gray" d="M52,-578C52,-578 827.175,-578 827.175,-578 833.175,-578 839.175,-584 839.175,-590 839.175,-590 839.175,-746 839.175,-746 839.175,-752 833.175,-758 827.175,-758 827.175,-758 52,-758 52,-758 46,-758 40,-752 40,-746 40,-746 40,-590 40,-590 40,-584 46,-578 52,-578"/>
<text text-anchor="middle" x="439.588" y="-745.2" font-family="Times,serif" font-size="11.00" fill="gray">Scenario</text>
</g>
<g id="clust11" class="cluster"><title>cluster_\Teknoo\States\LifeCycle\Tokenization</title>
<path fill="none" stroke="gray" d="M373.088,-498C373.088,-498 793.175,-498 793.175,-498 799.175,-498 805.175,-504 805.175,-510 805.175,-510 805.175,-558 805.175,-558 805.175,-564 799.175,-570 793.175,-570 793.175,-570 373.088,-570 373.088,-570 367.088,-570 361.088,-564 361.088,-558 361.088,-558 361.088,-510 361.088,-510 361.088,-504 367.088,-498 373.088,-498"/>
<text text-anchor="middle" x="583.131" y="-557.2" font-family="Times,serif" font-size="11.00" fill="gray">Tokenization</text>
</g>
<g id="clust12" class="cluster"><title>cluster_\Teknoo\States\LifeCycle\Event</title>
<path fill="none" stroke="gray" d="M653.175,-310C653.175,-310 864.175,-310 864.175,-310 870.175,-310 876.175,-316 876.175,-322 876.175,-322 876.175,-478 876.175,-478 876.175,-484 870.175,-490 864.175,-490 864.175,-490 653.175,-490 653.175,-490 647.175,-490 641.175,-484 641.175,-478 641.175,-478 641.175,-322 641.175,-322 641.175,-316 647.175,-310 653.175,-310"/>
<text text-anchor="middle" x="758.675" y="-477.2" font-family="Times,serif" font-size="11.00" fill="gray">Event</text>
</g>
<g id="clust13" class="cluster"><title>cluster_\Teknoo\States\LifeCycle\Observing</title>
<path fill="none" stroke="gray" d="M352.588,-122C352.588,-122 813.675,-122 813.675,-122 819.675,-122 825.675,-128 825.675,-134 825.675,-134 825.675,-290 825.675,-290 825.675,-296 819.675,-302 813.675,-302 813.675,-302 352.588,-302 352.588,-302 346.588,-302 340.588,-296 340.588,-290 340.588,-290 340.588,-134 340.588,-134 340.588,-128 346.588,-122 352.588,-122"/>
<text text-anchor="middle" x="583.131" y="-289.2" font-family="Times,serif" font-size="11.00" fill="gray">Observing</text>
</g>
<!-- \\Teknoo\\States\\LifeCycle\\StatedClass\\Automated\\Assertion\\Property\\IsNotSame -->
<g id="node1" class="node"><title>\\Teknoo\\States\\LifeCycle\\StatedClass\\Automated\\Assertion\\Property\\IsNotSame</title>
<polygon fill="none" stroke="black" points="797.175,-1916 720.175,-1916 720.175,-1880 797.175,-1880 797.175,-1916"/>
<text text-anchor="middle" x="758.675" y="-1895.2" font-family="Courier,monospace" font-size="11.00">IsNotSame</text>
</g>
<!-- \\Teknoo\\States\\LifeCycle\\StatedClass\\Automated\\Assertion\\Property\\IsSame -->
<g id="node2" class="node"><title>\\Teknoo\\States\\LifeCycle\\StatedClass\\Automated\\Assertion\\Property\\IsSame</title>
<polygon fill="none" stroke="black" points="787.175,-1862 730.175,-1862 730.175,-1826 787.175,-1826 787.175,-1862"/>
<text text-anchor="middle" x="758.675" y="-1841.2" font-family="Courier,monospace" font-size="11.00">IsSame</text>
</g>
<!-- \\Teknoo\\States\\LifeCycle\\StatedClass\\Automated\\Assertion\\Property\\IsNull -->
<g id="node3" class="node"><title>\\Teknoo\\States\\LifeCycle\\StatedClass\\Automated\\Assertion\\Property\\IsNull</title>
<polygon fill="none" stroke="black" points="787.175,-1808 730.175,-1808 730.175,-1772 787.175,-1772 787.175,-1808"/>
<text text-anchor="middle" x="758.675" y="-1787.2" font-family="Courier,monospace" font-size="11.00">IsNull</text>
</g>
<!-- \\Teknoo\\States\\LifeCycle\\StatedClass\\Automated\\Assertion\\Property\\IsLessOrEqualThan -->
<g id="node4" class="node"><title>\\Teknoo\\States\\LifeCycle\\StatedClass\\Automated\\Assertion\\Property\\IsLessOrEqualThan</title>
<polygon fill="none" stroke="black" points="824.175,-1754 693.175,-1754 693.175,-1718 824.175,-1718 824.175,-1754"/>
<text text-anchor="middle" x="758.675" y="-1733.2" font-family="Courier,monospace" font-size="11.00">IsLessOrEqualThan</text>
</g>
<!-- \\Teknoo\\States\\LifeCycle\\StatedClass\\Automated\\Assertion\\Property\\IsLessThan -->
<g id="node5" class="node"><title>\\Teknoo\\States\\LifeCycle\\StatedClass\\Automated\\Assertion\\Property\\IsLessThan</title>
<polygon fill="none" stroke="black" points="800.675,-1700 716.675,-1700 716.675,-1664 800.675,-1664 800.675,-1700"/>
<text text-anchor="middle" x="758.675" y="-1679.2" font-family="Courier,monospace" font-size="11.00">IsLessThan</text>
</g>
<!-- \\Teknoo\\States\\LifeCycle\\StatedClass\\Automated\\Assertion\\Property\\IsNotInstanceOf -->
<g id="node6" class="node"><title>\\Teknoo\\States\\LifeCycle\\StatedClass\\Automated\\Assertion\\Property\\IsNotInstanceOf</title>
<polygon fill="none" stroke="black" points="817.675,-1646 699.675,-1646 699.675,-1610 817.675,-1610 817.675,-1646"/>
<text text-anchor="middle" x="758.675" y="-1625.2" font-family="Courier,monospace" font-size="11.00">IsNotInstanceOf</text>
</g>
<!-- \\Teknoo\\States\\LifeCycle\\StatedClass\\Automated\\Assertion\\Property\\IsNotEqual -->
<g id="node7" class="node"><title>\\Teknoo\\States\\LifeCycle\\StatedClass\\Automated\\Assertion\\Property\\IsNotEqual</title>
<polygon fill="none" stroke="black" points="800.675,-1592 716.675,-1592 716.675,-1556 800.675,-1556 800.675,-1592"/>
<text text-anchor="middle" x="758.675" y="-1571.2" font-family="Courier,monospace" font-size="11.00">IsNotEqual</text>
</g>
<!-- \\Teknoo\\States\\LifeCycle\\StatedClass\\Automated\\Assertion\\Property\\IsGreaterThan -->
<g id="node8" class="node"><title>\\Teknoo\\States\\LifeCycle\\StatedClass\\Automated\\Assertion\\Property\\IsGreaterThan</title>
<polygon fill="none" stroke="black" points="810.675,-1538 706.675,-1538 706.675,-1502 810.675,-1502 810.675,-1538"/>
<text text-anchor="middle" x="758.675" y="-1517.2" font-family="Courier,monospace" font-size="11.00">IsGreaterThan</text>
</g>
<!-- \\Teknoo\\States\\LifeCycle\\StatedClass\\Automated\\Assertion\\Property\\IsEqual -->
<g id="node9" class="node"><title>\\Teknoo\\States\\LifeCycle\\StatedClass\\Automated\\Assertion\\Property\\IsEqual</title>
<polygon fill="none" stroke="black" points="790.675,-1484 726.675,-1484 726.675,-1448 790.675,-1448 790.675,-1484"/>
<text text-anchor="middle" x="758.675" y="-1463.2" font-family="Courier,monospace" font-size="11.00">IsEqual</text>
</g>
<!-- \\Teknoo\\States\\LifeCycle\\StatedClass\\Automated\\Assertion\\Property\\IsNotNull -->
<g id="node10" class="node"><title>\\Teknoo\\States\\LifeCycle\\StatedClass\\Automated\\Assertion\\Property\\IsNotNull</title>
<polygon fill="none" stroke="black" points="797.175,-1430 720.175,-1430 720.175,-1394 797.175,-1394 797.175,-1430"/>
<text text-anchor="middle" x="758.675" y="-1409.2" font-family="Courier,monospace" font-size="11.00">IsNotNull</text>
</g>
<!-- \\Teknoo\\States\\LifeCycle\\StatedClass\\Automated\\Assertion\\Property\\IsInstanceOf -->
<g id="node11" class="node"><title>\\Teknoo\\States\\LifeCycle\\StatedClass\\Automated\\Assertion\\Property\\IsInstanceOf</title>
<polygon fill="none" stroke="black" points="807.675,-1376 709.675,-1376 709.675,-1340 807.675,-1340 807.675,-1376"/>
<text text-anchor="middle" x="758.675" y="-1355.2" font-family="Courier,monospace" font-size="11.00">IsInstanceOf</text>
</g>
<!-- \\Teknoo\\States\\LifeCycle\\StatedClass\\Automated\\Assertion\\Property\\IsGreaterOrEqualThan -->
<g id="node12" class="node"><title>\\Teknoo\\States\\LifeCycle\\StatedClass\\Automated\\Assertion\\Property\\IsGreaterOrEqualThan</title>
<polygon fill="none" stroke="black" points="834.675,-1322 682.675,-1322 682.675,-1286 834.675,-1286 834.675,-1322"/>
<text text-anchor="middle" x="758.675" y="-1301.2" font-family="Courier,monospace" font-size="11.00">IsGreaterOrEqualThan</text>
</g>
<!-- \\Teknoo\\States\\LifeCycle\\StatedClass\\Automated\\Assertion\\Callback -->
<g id="node13" class="node"><title>\\Teknoo\\States\\LifeCycle\\StatedClass\\Automated\\Assertion\\Callback</title>
<polygon fill="none" stroke="black" points="794.175,-1268 723.175,-1268 723.175,-1232 794.175,-1232 794.175,-1268"/>
<text text-anchor="middle" x="758.675" y="-1247.2" font-family="Courier,monospace" font-size="11.00">Callback</text>
</g>
<!-- \\Teknoo\\States\\LifeCycle\\StatedClass\\Automated\\Assertion\\AbstractAssertion -->
<g id="node14" class="node"><title>\\Teknoo\\States\\LifeCycle\\StatedClass\\Automated\\Assertion\\AbstractAssertion</title>
<polygon fill="none" stroke="black" points="503.588,-1242 372.588,-1242 372.588,-1206 503.588,-1206 503.588,-1242"/>
<text text-anchor="start" x="404.088" y="-1227.2" font-family="Courier,monospace" font-size="11.00">«abstract»</text>
<text text-anchor="start" x="380.588" y="-1215.2" font-family="Courier,monospace" font-size="11.00">AbstractAssertion</text>
</g>
<!-- \\Teknoo\\States\\LifeCycle\\StatedClass\\Automated\\Assertion\\Callback&#45;&gt;\\Teknoo\\States\\LifeCycle\\StatedClass\\Automated\\Assertion\\AbstractAssertion -->
<g id="edge1" class="edge"><title>\\Teknoo\\States\\LifeCycle\\StatedClass\\Automated\\Assertion\\Callback&#45;&gt;\\Teknoo\\States\\LifeCycle\\StatedClass\\Automated\\Assertion\\AbstractAssertion</title>
<path fill="none" stroke="black" d="M722.974,-1247.17C673.146,-1243.1 580.076,-1235.51 514.098,-1230.12"/>
<polygon fill="none" stroke="black" points="514.004,-1226.6 503.753,-1229.28 513.435,-1233.58 514.004,-1226.6"/>
</g>
<!-- \\Teknoo\\States\\LifeCycle\\StatedClass\\Automated\\Assertion\\AssertionInterface -->
<g id="node16" class="node"><title>\\Teknoo\\States\\LifeCycle\\StatedClass\\Automated\\Assertion\\AssertionInterface</title>
<polygon fill="none" stroke="black" points="206.5,-1242 68.5,-1242 68.5,-1206 206.5,-1206 206.5,-1242"/>
<text text-anchor="middle" x="137.5" y="-1221.2" font-family="Courier,monospace" font-size="11.00">AssertionInterface</text>
</g>
<!-- \\Teknoo\\States\\LifeCycle\\StatedClass\\Automated\\Assertion\\Callback&#45;&gt;\\Teknoo\\States\\LifeCycle\\StatedClass\\Automated\\Assertion\\AssertionInterface -->
<g id="edge2" class="edge"><title>\\Teknoo\\States\\LifeCycle\\StatedClass\\Automated\\Assertion\\Callback&#45;&gt;\\Teknoo\\States\\LifeCycle\\StatedClass\\Automated\\Assertion\\AssertionInterface</title>
<path fill="none" stroke="black" stroke-dasharray="1,5" d="M723.07,-1252.09C646.483,-1256.27 456.916,-1264.19 299,-1251 271.909,-1248.74 242.512,-1244.36 216.369,-1239.78"/>
<polygon fill="none" stroke="black" points="216.98,-1236.34 206.52,-1238.02 215.747,-1243.23 216.98,-1236.34"/>
</g>
<!-- \\Teknoo\\States\\LifeCycle\\StatedClass\\Automated\\Assertion\\AbstractAssertion&#45;&gt;\\Teknoo\\States\\LifeCycle\\StatedClass\\Automated\\Assertion\\AssertionInterface -->
<g id="edge3" class="edge"><title>\\Teknoo\\States\\LifeCycle\\StatedClass\\Automated\\Assertion\\AbstractAssertion&#45;&gt;\\Teknoo\\States\\LifeCycle\\StatedClass\\Automated\\Assertion\\AssertionInterface</title>
<path fill="none" stroke="black" stroke-dasharray="1,5" d="M372.299,-1224C326.582,-1224 265.102,-1224 216.661,-1224"/>
<polygon fill="none" stroke="black" points="216.533,-1220.5 206.533,-1224 216.533,-1227.5 216.533,-1220.5"/>
</g>
<!-- \\Teknoo\\States\\LifeCycle\\StatedClass\\Automated\\Assertion\\Assertion -->
<g id="node15" class="node"><title>\\Teknoo\\States\\LifeCycle\\StatedClass\\Automated\\Assertion\\Assertion</title>
<polygon fill="none" stroke="black" points="797.175,-1214 720.175,-1214 720.175,-1178 797.175,-1178 797.175,-1214"/>
<text text-anchor="middle" x="758.675" y="-1193.2" font-family="Courier,monospace" font-size="11.00">Assertion</text>
</g>
<!-- \\Teknoo\\States\\LifeCycle\\StatedClass\\Automated\\Assertion\\Assertion&#45;&gt;\\Teknoo\\States\\LifeCycle\\StatedClass\\Automated\\Assertion\\AbstractAssertion -->
<g id="edge4" class="edge"><title>\\Teknoo\\States\\LifeCycle\\StatedClass\\Automated\\Assertion\\Assertion&#45;&gt;\\Teknoo\\States\\LifeCycle\\StatedClass\\Automated\\Assertion\\AbstractAssertion</title>
<path fill="none" stroke="black" d="M719.878,-1199.32C669.343,-1203.76 578.643,-1211.73 514.002,-1217.42"/>
<polygon fill="none" stroke="black" points="513.517,-1213.95 503.862,-1218.31 514.13,-1220.92 513.517,-1213.95"/>
</g>
<!-- \\Teknoo\\States\\LifeCycle\\StatedClass\\Automated\\Assertion\\Assertion&#45;&gt;\\Teknoo\\States\\LifeCycle\\StatedClass\\Automated\\Assertion\\AssertionInterface -->
<g id="edge5" class="edge"><title>\\Teknoo\\States\\LifeCycle\\StatedClass\\Automated\\Assertion\\Assertion&#45;&gt;\\Teknoo\\States\\LifeCycle\\StatedClass\\Automated\\Assertion\\AssertionInterface</title>
<path fill="none" stroke="black" stroke-dasharray="1,5" d="M720.128,-1194C641.718,-1190.28 454.918,-1183.81 299,-1197 271.912,-1199.29 242.515,-1203.68 216.371,-1208.25"/>
<polygon fill="none" stroke="black" points="215.751,-1204.81 206.522,-1210.01 216.982,-1211.7 215.751,-1204.81"/>
</g>
<!-- \\Teknoo\\States\\LifeCycle\\StatedClass\\Automated\\AutomatedInterface -->
<g id="node17" class="node"><title>\\Teknoo\\States\\LifeCycle\\StatedClass\\Automated\\AutomatedInterface</title>
<polygon fill="none" stroke="black" points="827.675,-1160 689.675,-1160 689.675,-1124 827.675,-1124 827.675,-1160"/>
<text text-anchor="middle" x="758.675" y="-1139.2" font-family="Courier,monospace" font-size="11.00">AutomatedInterface</text>
</g>
<!-- \\Teknoo\\States\\Proxy\\ProxyInterface -->
<g id="node45" class="node"><title>\\Teknoo\\States\\Proxy\\ProxyInterface</title>
<ellipse fill="none" stroke="black" cx="438.088" cy="-18" rx="139.175" ry="18"/>
<text text-anchor="middle" x="438.088" y="-14.3" font-family="Times,serif" font-size="14.00" fill="gray">Teknoo\States\Proxy\ProxyInterface</text>
</g>
<!-- \\Teknoo\\States\\LifeCycle\\StatedClass\\Automated\\AutomatedInterface&#45;&gt;\\Teknoo\\States\\Proxy\\ProxyInterface -->
<g id="edge16" class="edge"><title>\\Teknoo\\States\\LifeCycle\\StatedClass\\Automated\\AutomatedInterface&#45;&gt;\\Teknoo\\States\\Proxy\\ProxyInterface</title>
<path fill="none" stroke="black" d="M689.497,-1140.64C671.252,-1136.82 653.264,-1129.25 641.175,-1115 497.544,-945.709 684.405,-312.399 577.175,-118 557.657,-82.6156 519.685,-56.5315 488.492,-39.8915"/>
<polygon fill="none" stroke="black" points="489.968,-36.715 479.477,-35.24 486.758,-42.9358 489.968,-36.715"/>
</g>
<!-- \\Teknoo\\States\\LifeCycle\\StatedClass\\Automated\\AutomatedTrait -->
<g id="node18" class="node"><title>\\Teknoo\\States\\LifeCycle\\StatedClass\\Automated\\AutomatedTrait</title>
<polygon fill="none" stroke="black" points="814.175,-1106 703.175,-1106 703.175,-1070 814.175,-1070 814.175,-1106"/>
<text text-anchor="middle" x="758.675" y="-1085.2" font-family="Courier,monospace" font-size="11.00">AutomatedTrait</text>
</g>
<!-- \\Teknoo\\States\\LifeCycle\\StatedClass\\LifeCyclableInterface -->
<g id="node19" class="node"><title>\\Teknoo\\States\\LifeCycle\\StatedClass\\LifeCyclableInterface</title>
<polygon fill="none" stroke="black" points="837.675,-1052 679.675,-1052 679.675,-1016 837.675,-1016 837.675,-1052"/>
<text text-anchor="middle" x="758.675" y="-1031.2" font-family="Courier,monospace" font-size="11.00">LifeCyclableInterface</text>
</g>
<!-- \\Teknoo\\States\\LifeCycle\\StatedClass\\LifeCyclableInterface&#45;&gt;\\Teknoo\\States\\Proxy\\ProxyInterface -->
<g id="edge17" class="edge"><title>\\Teknoo\\States\\LifeCycle\\StatedClass\\LifeCyclableInterface&#45;&gt;\\Teknoo\\States\\Proxy\\ProxyInterface</title>
<path fill="none" stroke="black" d="M679.591,-1030.08C664.919,-1025.76 651.093,-1018.6 641.175,-1007 512.45,-856.467 673.512,-291.06 577.175,-118 557.52,-82.6916 519.557,-56.6024 488.402,-39.9412"/>
<polygon fill="none" stroke="black" points="489.889,-36.7699 479.399,-35.283 486.672,-42.987 489.889,-36.7699"/>
</g>
<!-- \\Teknoo\\States\\LifeCycle\\StatedClass\\LifeCyclableTrait -->
<g id="node20" class="node"><title>\\Teknoo\\States\\LifeCycle\\StatedClass\\LifeCyclableTrait</title>
<polygon fill="none" stroke="black" points="824.175,-998 693.175,-998 693.175,-962 824.175,-962 824.175,-998"/>
<text text-anchor="middle" x="758.675" y="-977.2" font-family="Courier,monospace" font-size="11.00">LifeCyclableTrait</text>
</g>
<!-- \\Teknoo\\States\\LifeCycle\\StatedClass\\AutomatedLifeCyclableTrait -->
<g id="node21" class="node"><title>\\Teknoo\\States\\LifeCycle\\StatedClass\\AutomatedLifeCyclableTrait</title>
<polygon fill="none" stroke="black" points="854.675,-944 662.675,-944 662.675,-908 854.675,-908 854.675,-944"/>
<text text-anchor="middle" x="758.675" y="-923.2" font-family="Courier,monospace" font-size="11.00">AutomatedLifeCyclableTrait</text>
</g>
<!-- \\Teknoo\\States\\LifeCycle\\Trace\\Trace -->
<g id="node22" class="node"><title>\\Teknoo\\States\\LifeCycle\\Trace\\Trace</title>
<polygon fill="none" stroke="black" points="785.675,-864 731.675,-864 731.675,-828 785.675,-828 785.675,-864"/>
<text text-anchor="middle" x="758.675" y="-843.2" font-family="Courier,monospace" font-size="11.00">Trace</text>
</g>
<!-- \\Teknoo\\States\\LifeCycle\\Trace\\TraceInterface -->
<g id="node24" class="node"><title>\\Teknoo\\States\\LifeCycle\\Trace\\TraceInterface</title>
<polygon fill="none" stroke="black" points="493.588,-864 382.588,-864 382.588,-828 493.588,-828 493.588,-864"/>
<text text-anchor="middle" x="438.088" y="-843.2" font-family="Courier,monospace" font-size="11.00">TraceInterface</text>
</g>
<!-- \\Teknoo\\States\\LifeCycle\\Trace\\Trace&#45;&gt;\\Teknoo\\States\\LifeCycle\\Trace\\TraceInterface -->
<g id="edge6" class="edge"><title>\\Teknoo\\States\\LifeCycle\\Trace\\Trace&#45;&gt;\\Teknoo\\States\\LifeCycle\\Trace\\TraceInterface</title>
<path fill="none" stroke="black" stroke-dasharray="1,5" d="M731.604,-846C682.241,-846 573.811,-846 503.731,-846"/>
<polygon fill="none" stroke="black" points="503.681,-842.5 493.681,-846 503.681,-849.5 503.681,-842.5"/>
</g>
<!-- \\Teknoo\\States\\LifeCycle\\Trace\\Entry -->
<g id="node23" class="node"><title>\\Teknoo\\States\\LifeCycle\\Trace\\Entry</title>
<polygon fill="none" stroke="black" points="785.675,-810 731.675,-810 731.675,-774 785.675,-774 785.675,-810"/>
<text text-anchor="middle" x="758.675" y="-789.2" font-family="Courier,monospace" font-size="11.00">Entry</text>
</g>
<!-- \\Teknoo\\States\\LifeCycle\\Trace\\EntryInterface -->
<g id="node25" class="node"><title>\\Teknoo\\States\\LifeCycle\\Trace\\EntryInterface</title>
<polygon fill="none" stroke="black" points="493.588,-810 382.588,-810 382.588,-774 493.588,-774 493.588,-810"/>
<text text-anchor="middle" x="438.088" y="-789.2" font-family="Courier,monospace" font-size="11.00">EntryInterface</text>
</g>
<!-- \\Teknoo\\States\\LifeCycle\\Trace\\Entry&#45;&gt;\\Teknoo\\States\\LifeCycle\\Trace\\EntryInterface -->
<g id="edge7" class="edge"><title>\\Teknoo\\States\\LifeCycle\\Trace\\Entry&#45;&gt;\\Teknoo\\States\\LifeCycle\\Trace\\EntryInterface</title>
<path fill="none" stroke="black" stroke-dasharray="1,5" d="M731.604,-792C682.241,-792 573.811,-792 503.731,-792"/>
<polygon fill="none" stroke="black" points="503.681,-788.5 493.681,-792 503.681,-795.5 503.681,-788.5"/>
</g>
<!-- \\Teknoo\\States\\LifeCycle\\Scenario\\Manager -->
<g id="node26" class="node"><title>\\Teknoo\\States\\LifeCycle\\Scenario\\Manager</title>
<polygon fill="none" stroke="black" points="790.675,-730 726.675,-730 726.675,-694 790.675,-694 790.675,-730"/>
<text text-anchor="middle" x="758.675" y="-709.2" font-family="Courier,monospace" font-size="11.00">Manager</text>
</g>
<!-- \\Teknoo\\States\\LifeCycle\\Scenario\\ManagerInterface -->
<g id="node32" class="node"><title>\\Teknoo\\States\\LifeCycle\\Scenario\\ManagerInterface</title>
<polygon fill="none" stroke="black" points="500.588,-730 375.588,-730 375.588,-694 500.588,-694 500.588,-730"/>
<text text-anchor="middle" x="438.088" y="-709.2" font-family="Courier,monospace" font-size="11.00">ManagerInterface</text>
</g>
<!-- \\Teknoo\\States\\LifeCycle\\Scenario\\Manager&#45;&gt;\\Teknoo\\States\\LifeCycle\\Scenario\\ManagerInterface -->
<g id="edge8" class="edge"><title>\\Teknoo\\States\\LifeCycle\\Scenario\\Manager&#45;&gt;\\Teknoo\\States\\LifeCycle\\Scenario\\ManagerInterface</title>
<path fill="none" stroke="black" stroke-dasharray="1,5" d="M726.548,-712C676.955,-712 578.709,-712 510.986,-712"/>
<polygon fill="none" stroke="black" points="510.808,-708.5 500.808,-712 510.808,-715.5 510.808,-708.5"/>
</g>
<!-- \\Teknoo\\States\\LifeCycle\\Scenario\\Scenario -->
<g id="node27" class="node"><title>\\Teknoo\\States\\LifeCycle\\Scenario\\Scenario</title>
<polygon fill="none" stroke="black" points="794.175,-676 723.175,-676 723.175,-640 794.175,-640 794.175,-676"/>
<text text-anchor="middle" x="758.675" y="-655.2" font-family="Courier,monospace" font-size="11.00">Scenario</text>
</g>
<!-- \\Teknoo\\States\\LifeCycle\\Scenario\\ScenarioInterface -->
<g id="node31" class="node"><title>\\Teknoo\\States\\LifeCycle\\Scenario\\ScenarioInterface</title>
<polygon fill="none" stroke="black" points="503.588,-676 372.588,-676 372.588,-640 503.588,-640 503.588,-676"/>
<text text-anchor="middle" x="438.088" y="-655.2" font-family="Courier,monospace" font-size="11.00">ScenarioInterface</text>
</g>
<!-- \\Teknoo\\States\\LifeCycle\\Scenario\\Scenario&#45;&gt;\\Teknoo\\States\\LifeCycle\\Scenario\\ScenarioInterface -->
<g id="edge9" class="edge"><title>\\Teknoo\\States\\LifeCycle\\Scenario\\Scenario&#45;&gt;\\Teknoo\\States\\LifeCycle\\Scenario\\ScenarioInterface</title>
<path fill="none" stroke="black" stroke-dasharray="1,5" d="M722.974,-658C673.146,-658 580.076,-658 514.098,-658"/>
<polygon fill="none" stroke="black" points="513.753,-654.5 503.753,-658 513.753,-661.5 513.753,-654.5"/>
</g>
<!-- \\Teknoo\\States\\LifeCycle\\Scenario\\ScenarioBuilder -->
<g id="node28" class="node"><title>\\Teknoo\\States\\LifeCycle\\Scenario\\ScenarioBuilder</title>
<polygon fill="none" stroke="black" points="497.088,-622 379.088,-622 379.088,-586 497.088,-586 497.088,-622"/>
<text text-anchor="middle" x="438.088" y="-601.2" font-family="Courier,monospace" font-size="11.00">ScenarioBuilder</text>
</g>
<!-- \\Teknoo\\States\\LifeCycle\\Scenario\\ScenarioBuilderInterface -->
<g id="node30" class="node"><title>\\Teknoo\\States\\LifeCycle\\Scenario\\ScenarioBuilderInterface</title>
<polygon fill="none" stroke="black" points="227,-622 48,-622 48,-586 227,-586 227,-622"/>
<text text-anchor="middle" x="137.5" y="-601.2" font-family="Courier,monospace" font-size="11.00">ScenarioBuilderInterface</text>
</g>
<!-- \\Teknoo\\States\\LifeCycle\\Scenario\\ScenarioBuilder&#45;&gt;\\Teknoo\\States\\LifeCycle\\Scenario\\ScenarioBuilderInterface -->
<g id="edge10" class="edge"><title>\\Teknoo\\States\\LifeCycle\\Scenario\\ScenarioBuilder&#45;&gt;\\Teknoo\\States\\LifeCycle\\Scenario\\ScenarioBuilderInterface</title>
<path fill="none" stroke="black" stroke-dasharray="1,5" d="M378.808,-604C338.647,-604 284.277,-604 237.411,-604"/>
<polygon fill="none" stroke="black" points="237.224,-600.5 227.224,-604 237.224,-607.5 237.224,-600.5"/>
</g>
<!-- \\Teknoo\\States\\LifeCycle\\Scenario\\ScenarioYamlBuilder -->
<g id="node29" class="node"><title>\\Teknoo\\States\\LifeCycle\\Scenario\\ScenarioYamlBuilder</title>
<polygon fill="none" stroke="black" points="831.175,-622 686.175,-622 686.175,-586 831.175,-586 831.175,-622"/>
<text text-anchor="middle" x="758.675" y="-601.2" font-family="Courier,monospace" font-size="11.00">ScenarioYamlBuilder</text>
</g>
<!-- \\Teknoo\\States\\LifeCycle\\Scenario\\ScenarioYamlBuilder&#45;&gt;\\Teknoo\\States\\LifeCycle\\Scenario\\ScenarioBuilder -->
<g id="edge11" class="edge"><title>\\Teknoo\\States\\LifeCycle\\Scenario\\ScenarioYamlBuilder&#45;&gt;\\Teknoo\\States\\LifeCycle\\Scenario\\ScenarioBuilder</title>
<path fill="none" stroke="black" d="M685.781,-604C632.358,-604 559.94,-604 507.395,-604"/>
<polygon fill="none" stroke="black" points="507.162,-600.5 497.162,-604 507.162,-607.5 507.162,-600.5"/>
</g>
<!-- \\Teknoo\\States\\LifeCycle\\Tokenization\\Tokenizer -->
<g id="node33" class="node"><title>\\Teknoo\\States\\LifeCycle\\Tokenization\\Tokenizer</title>
<polygon fill="none" stroke="black" points="797.175,-542 720.175,-542 720.175,-506 797.175,-506 797.175,-542"/>
<text text-anchor="middle" x="758.675" y="-521.2" font-family="Courier,monospace" font-size="11.00">Tokenizer</text>
</g>
<!-- \\Teknoo\\States\\LifeCycle\\Tokenization\\TokenizerInterface -->
<g id="node34" class="node"><title>\\Teknoo\\States\\LifeCycle\\Tokenization\\TokenizerInterface</title>
<polygon fill="none" stroke="black" points="507.088,-542 369.088,-542 369.088,-506 507.088,-506 507.088,-542"/>
<text text-anchor="middle" x="438.088" y="-521.2" font-family="Courier,monospace" font-size="11.00">TokenizerInterface</text>
</g>
<!-- \\Teknoo\\States\\LifeCycle\\Tokenization\\Tokenizer&#45;&gt;\\Teknoo\\States\\LifeCycle\\Tokenization\\TokenizerInterface -->
<g id="edge12" class="edge"><title>\\Teknoo\\States\\LifeCycle\\Tokenization\\Tokenizer&#45;&gt;\\Teknoo\\States\\LifeCycle\\Tokenization\\TokenizerInterface</title>
<path fill="none" stroke="black" stroke-dasharray="1,5" d="M719.878,-524C670.204,-524 581.72,-524 517.326,-524"/>
<polygon fill="none" stroke="black" points="517.208,-520.5 507.208,-524 517.208,-527.5 517.208,-520.5"/>
</g>
<!-- \\Teknoo\\States\\LifeCycle\\Event\\EventDispatcherBridgeInterface -->
<g id="node35" class="node"><title>\\Teknoo\\States\\LifeCycle\\Event\\EventDispatcherBridgeInterface</title>
<polygon fill="none" stroke="black" points="868.175,-462 649.175,-462 649.175,-426 868.175,-426 868.175,-462"/>
<text text-anchor="middle" x="758.675" y="-441.2" font-family="Courier,monospace" font-size="11.00">EventDispatcherBridgeInterface</text>
</g>
<!-- \\Teknoo\\States\\LifeCycle\\Event\\EventInterface -->
<g id="node36" class="node"><title>\\Teknoo\\States\\LifeCycle\\Event\\EventInterface</title>
<polygon fill="none" stroke="black" points="814.175,-408 703.175,-408 703.175,-372 814.175,-372 814.175,-408"/>
<text text-anchor="middle" x="758.675" y="-387.2" font-family="Courier,monospace" font-size="11.00">EventInterface</text>
</g>
<!-- \\Teknoo\\States\\LifeCycle\\Event\\EventTrait -->
<g id="node37" class="node"><title>\\Teknoo\\States\\LifeCycle\\Event\\EventTrait</title>
<polygon fill="none" stroke="black" points="800.675,-354 716.675,-354 716.675,-318 800.675,-318 800.675,-354"/>
<text text-anchor="middle" x="758.675" y="-333.2" font-family="Courier,monospace" font-size="11.00">EventTrait</text>
</g>
<!-- \\Teknoo\\States\\LifeCycle\\Observing\\Observed -->
<g id="node38" class="node"><title>\\Teknoo\\States\\LifeCycle\\Observing\\Observed</title>
<polygon fill="none" stroke="black" points="794.175,-274 723.175,-274 723.175,-238 794.175,-238 794.175,-274"/>
<text text-anchor="middle" x="758.675" y="-253.2" font-family="Courier,monospace" font-size="11.00">Observed</text>
</g>
<!-- \\Teknoo\\States\\LifeCycle\\Observing\\ObservedInterface -->
<g id="node43" class="node"><title>\\Teknoo\\States\\LifeCycle\\Observing\\ObservedInterface</title>
<polygon fill="none" stroke="black" points="503.588,-274 372.588,-274 372.588,-238 503.588,-238 503.588,-274"/>
<text text-anchor="middle" x="438.088" y="-253.2" font-family="Courier,monospace" font-size="11.00">ObservedInterface</text>
</g>
<!-- \\Teknoo\\States\\LifeCycle\\Observing\\Observed&#45;&gt;\\Teknoo\\States\\LifeCycle\\Observing\\ObservedInterface -->
<g id="edge13" class="edge"><title>\\Teknoo\\States\\LifeCycle\\Observing\\Observed&#45;&gt;\\Teknoo\\States\\LifeCycle\\Observing\\ObservedInterface</title>
<path fill="none" stroke="black" stroke-dasharray="1,5" d="M722.974,-256C673.146,-256 580.076,-256 514.098,-256"/>
<polygon fill="none" stroke="black" points="513.753,-252.5 503.753,-256 513.753,-259.5 513.753,-252.5"/>
</g>
<!-- \\Teknoo\\States\\LifeCycle\\Observing\\ObservedFactory -->
<g id="node39" class="node"><title>\\Teknoo\\States\\LifeCycle\\Observing\\ObservedFactory</title>
<polygon fill="none" stroke="black" points="817.675,-220 699.675,-220 699.675,-184 817.675,-184 817.675,-220"/>
<text text-anchor="middle" x="758.675" y="-199.2" font-family="Courier,monospace" font-size="11.00">ObservedFactory</text>
</g>
<!-- \\Teknoo\\States\\LifeCycle\\Observing\\ObservedFactoryInterface -->
<g id="node41" class="node"><title>\\Teknoo\\States\\LifeCycle\\Observing\\ObservedFactoryInterface</title>
<polygon fill="none" stroke="black" points="527.588,-220 348.588,-220 348.588,-184 527.588,-184 527.588,-220"/>
<text text-anchor="middle" x="438.088" y="-199.2" font-family="Courier,monospace" font-size="11.00">ObservedFactoryInterface</text>
</g>
<!-- \\Teknoo\\States\\LifeCycle\\Observing\\ObservedFactory&#45;&gt;\\Teknoo\\States\\LifeCycle\\Observing\\ObservedFactoryInterface -->
<g id="edge14" class="edge"><title>\\Teknoo\\States\\LifeCycle\\Observing\\ObservedFactory&#45;&gt;\\Teknoo\\States\\LifeCycle\\Observing\\ObservedFactoryInterface</title>
<path fill="none" stroke="black" stroke-dasharray="1,5" d="M699.612,-202C654.509,-202 590.918,-202 537.854,-202"/>
<polygon fill="none" stroke="black" points="537.733,-198.5 527.733,-202 537.733,-205.5 537.733,-198.5"/>
</g>
<!-- \\Teknoo\\States\\LifeCycle\\Observing\\Observer -->
<g id="node40" class="node"><title>\\Teknoo\\States\\LifeCycle\\Observing\\Observer</title>
<polygon fill="none" stroke="black" points="794.175,-166 723.175,-166 723.175,-130 794.175,-130 794.175,-166"/>
<text text-anchor="middle" x="758.675" y="-145.2" font-family="Courier,monospace" font-size="11.00">Observer</text>
</g>
<!-- \\Teknoo\\States\\LifeCycle\\Observing\\ObserverInterface -->
<g id="node42" class="node"><title>\\Teknoo\\States\\LifeCycle\\Observing\\ObserverInterface</title>
<polygon fill="none" stroke="black" points="503.588,-166 372.588,-166 372.588,-130 503.588,-130 503.588,-166"/>
<text text-anchor="middle" x="438.088" y="-145.2" font-family="Courier,monospace" font-size="11.00">ObserverInterface</text>
</g>
<!-- \\Teknoo\\States\\LifeCycle\\Observing\\Observer&#45;&gt;\\Teknoo\\States\\LifeCycle\\Observing\\ObserverInterface -->
<g id="edge15" class="edge"><title>\\Teknoo\\States\\LifeCycle\\Observing\\Observer&#45;&gt;\\Teknoo\\States\\LifeCycle\\Observing\\ObserverInterface</title>
<path fill="none" stroke="black" stroke-dasharray="1,5" d="M722.974,-148C673.146,-148 580.076,-148 514.098,-148"/>
<polygon fill="none" stroke="black" points="513.753,-144.5 503.753,-148 513.753,-151.5 513.753,-144.5"/>
</g>
<!-- \\Teknoo\\States\\LifeCycle\\Generator -->
<g id="node44" class="node"><title>\\Teknoo\\States\\LifeCycle\\Generator</title>
<polygon fill="none" stroke="black" points="797.175,-112 720.175,-112 720.175,-76 797.175,-76 797.175,-112"/>
<text text-anchor="middle" x="758.675" y="-91.2" font-family="Courier,monospace" font-size="11.00">Generator</text>
</g>
</g>
</svg>
