<?xml version="1.0" encoding="UTF-8" standalone="no"?>
<!DOCTYPE svg PUBLIC "-//W3C//DTD SVG 1.1//EN"
 "http://www.w3.org/Graphics/SVG/1.1/DTD/svg11.dtd">
<!-- Generated by graphviz version 2.38.0 (20140413.2041)
 -->
<!-- Title: G Pages: 1 -->
<svg width="939pt" height="2102pt"
 viewBox="0.00 0.00 938.87 2102.00" xmlns="http://www.w3.org/2000/svg" xmlns:xlink="http://www.w3.org/1999/xlink">
<g id="graph0" class="graph" transform="scale(1 1) rotate(0) translate(4 2098)">
<title>G</title>
<polygon fill="white" stroke="none" points="-4,4 -4,-2098 934.872,-2098 934.872,4 -4,4"/>
<g id="clust1" class="cluster"><title>cluster_Global</title>
<path fill="none" stroke="gray" d="M20,-98C20,-98 910.872,-98 910.872,-98 916.872,-98 922.872,-104 922.872,-110 922.872,-110 922.872,-2074 922.872,-2074 922.872,-2080 916.872,-2086 910.872,-2086 910.872,-2086 20,-2086 20,-2086 14,-2086 8,-2080 8,-2074 8,-2074 8,-110 8,-110 8,-104 14,-98 20,-98"/>
<text text-anchor="middle" x="465.436" y="-2073.2" font-family="Times,serif" font-size="11.00" fill="gray">Global</text>
</g>
<g id="clust2" class="cluster"><title>cluster_\Teknoo</title>
<path fill="none" stroke="gray" d="M28,-106C28,-106 902.872,-106 902.872,-106 908.872,-106 914.872,-112 914.872,-118 914.872,-118 914.872,-2046 914.872,-2046 914.872,-2052 908.872,-2058 902.872,-2058 902.872,-2058 28,-2058 28,-2058 22,-2058 16,-2052 16,-2046 16,-2046 16,-118 16,-118 16,-112 22,-106 28,-106"/>
<text text-anchor="middle" x="465.436" y="-2045.2" font-family="Times,serif" font-size="11.00" fill="gray">Teknoo</text>
</g>
<g id="clust3" class="cluster"><title>cluster_\Teknoo\States</title>
<path fill="none" stroke="gray" d="M36,-114C36,-114 894.872,-114 894.872,-114 900.872,-114 906.872,-120 906.872,-126 906.872,-126 906.872,-2018 906.872,-2018 906.872,-2024 900.872,-2030 894.872,-2030 894.872,-2030 36,-2030 36,-2030 30,-2030 24,-2024 24,-2018 24,-2018 24,-126 24,-126 24,-120 30,-114 36,-114"/>
<text text-anchor="middle" x="465.436" y="-2017.2" font-family="Times,serif" font-size="11.00" fill="gray">States</text>
</g>
<g id="clust4" class="cluster"><title>cluster_\Teknoo\States\LifeCycle</title>
<path fill="none" stroke="gray" d="M44,-122C44,-122 886.872,-122 886.872,-122 892.872,-122 898.872,-128 898.872,-134 898.872,-134 898.872,-1990 898.872,-1990 898.872,-1996 892.872,-2002 886.872,-2002 886.872,-2002 44,-2002 44,-2002 38,-2002 32,-1996 32,-1990 32,-1990 32,-134 32,-134 32,-128 38,-122 44,-122"/>
<text text-anchor="middle" x="465.436" y="-1989.2" font-family="Times,serif" font-size="11.00" fill="gray">LifeCycle</text>
</g>
<g id="clust5" class="cluster"><title>cluster_\Teknoo\States\LifeCycle\StatedClass</title>
<path fill="none" stroke="gray" d="M56.5,-846C56.5,-846 878.872,-846 878.872,-846 884.872,-846 890.872,-852 890.872,-858 890.872,-858 890.872,-1962 890.872,-1962 890.872,-1968 884.872,-1974 878.872,-1974 878.872,-1974 56.5,-1974 56.5,-1974 50.5,-1974 44.5,-1968 44.5,-1962 44.5,-1962 44.5,-858 44.5,-858 44.5,-852 50.5,-846 56.5,-846"/>
<text text-anchor="middle" x="467.686" y="-1961.2" font-family="Times,serif" font-size="11.00" fill="gray">StatedClass</text>
</g>
<g id="clust6" class="cluster"><title>cluster_\Teknoo\States\LifeCycle\StatedClass\Automated</title>
<path fill="none" stroke="gray" d="M64.5,-1008C64.5,-1008 870.872,-1008 870.872,-1008 876.872,-1008 882.872,-1014 882.872,-1020 882.872,-1020 882.872,-1934 882.872,-1934 882.872,-1940 876.872,-1946 870.872,-1946 870.872,-1946 64.5,-1946 64.5,-1946 58.5,-1946 52.5,-1940 52.5,-1934 52.5,-1934 52.5,-1020 52.5,-1020 52.5,-1014 58.5,-1008 64.5,-1008"/>
<text text-anchor="middle" x="467.686" y="-1933.2" font-family="Times,serif" font-size="11.00" fill="gray">Automated</text>
</g>
<g id="clust7" class="cluster"><title>cluster_\Teknoo\States\LifeCycle\StatedClass\Automated\Assertion</title>
<path fill="none" stroke="gray" d="M72.5,-1116C72.5,-1116 862.872,-1116 862.872,-1116 868.872,-1116 874.872,-1122 874.872,-1128 874.872,-1128 874.872,-1906 874.872,-1906 874.872,-1912 868.872,-1918 862.872,-1918 862.872,-1918 72.5,-1918 72.5,-1918 66.5,-1918 60.5,-1912 60.5,-1906 60.5,-1906 60.5,-1128 60.5,-1128 60.5,-1122 66.5,-1116 72.5,-1116"/>
<text text-anchor="middle" x="467.686" y="-1905.2" font-family="Times,serif" font-size="11.00" fill="gray">Assertion</text>
</g>
<g id="clust8" class="cluster"><title>cluster_\Teknoo\States\LifeCycle\StatedClass\Automated\Assertion\Property</title>
<path fill="none" stroke="gray" d="M710.872,-1224C710.872,-1224 854.872,-1224 854.872,-1224 860.872,-1224 866.872,-1230 866.872,-1236 866.872,-1236 866.872,-1878 866.872,-1878 866.872,-1884 860.872,-1890 854.872,-1890 854.872,-1890 710.872,-1890 710.872,-1890 704.872,-1890 698.872,-1884 698.872,-1878 698.872,-1878 698.872,-1236 698.872,-1236 698.872,-1230 704.872,-1224 710.872,-1224"/>
<text text-anchor="middle" x="782.872" y="-1877.2" font-family="Times,serif" font-size="11.00" fill="gray">Property</text>
</g>
<g id="clust9" class="cluster"><title>cluster_\Teknoo\States\LifeCycle\Trace</title>
<path fill="none" stroke="gray" d="M405.436,-712C405.436,-712 805.872,-712 805.872,-712 811.872,-712 817.872,-718 817.872,-724 817.872,-724 817.872,-826 817.872,-826 817.872,-832 811.872,-838 805.872,-838 805.872,-838 405.436,-838 405.436,-838 399.436,-838 393.436,-832 393.436,-826 393.436,-826 393.436,-724 393.436,-724 393.436,-718 399.436,-712 405.436,-712"/>
<text text-anchor="middle" x="605.654" y="-825.2" font-family="Times,serif" font-size="11.00" fill="gray">Trace</text>
</g>
<g id="clust10" class="cluster"><title>cluster_\Teknoo\States\LifeCycle\Scenario</title>
<path fill="none" stroke="gray" d="M52,-524C52,-524 851.372,-524 851.372,-524 857.372,-524 863.372,-530 863.372,-536 863.372,-536 863.372,-692 863.372,-692 863.372,-698 857.372,-704 851.372,-704 851.372,-704 52,-704 52,-704 46,-704 40,-698 40,-692 40,-692 40,-536 40,-536 40,-530 46,-524 52,-524"/>
<text text-anchor="middle" x="451.686" y="-691.2" font-family="Times,serif" font-size="11.00" fill="gray">Scenario</text>
</g>
<g id="clust11" class="cluster"><title>cluster_\Teknoo\States\LifeCycle\Tokenization</title>
<path fill="none" stroke="gray" d="M391.936,-444C391.936,-444 817.372,-444 817.372,-444 823.372,-444 829.372,-450 829.372,-456 829.372,-456 829.372,-504 829.372,-504 829.372,-510 823.372,-516 817.372,-516 817.372,-516 391.936,-516 391.936,-516 385.936,-516 379.936,-510 379.936,-504 379.936,-504 379.936,-456 379.936,-456 379.936,-450 385.936,-444 391.936,-444"/>
<text text-anchor="middle" x="604.654" y="-503.2" font-family="Times,serif" font-size="11.00" fill="gray">Tokenization</text>
</g>
<g id="clust12" class="cluster"><title>cluster_\Teknoo\States\LifeCycle\Event</title>
<path fill="none" stroke="gray" d="M405.436,-364C405.436,-364 805.872,-364 805.872,-364 811.872,-364 817.872,-370 817.872,-376 817.872,-376 817.872,-424 817.872,-424 817.872,-430 811.872,-436 805.872,-436 805.872,-436 405.436,-436 405.436,-436 399.436,-436 393.436,-430 393.436,-424 393.436,-424 393.436,-376 393.436,-376 393.436,-370 399.436,-364 405.436,-364"/>
<text text-anchor="middle" x="605.654" y="-423.2" font-family="Times,serif" font-size="11.00" fill="gray">Event</text>
</g>
<g id="clust13" class="cluster"><title>cluster_\Teknoo\States\LifeCycle\Observing</title>
<path fill="none" stroke="gray" d="M371.436,-176C371.436,-176 837.872,-176 837.872,-176 843.872,-176 849.872,-182 849.872,-188 849.872,-188 849.872,-344 849.872,-344 849.872,-350 843.872,-356 837.872,-356 837.872,-356 371.436,-356 371.436,-356 365.436,-356 359.436,-350 359.436,-344 359.436,-344 359.436,-188 359.436,-188 359.436,-182 365.436,-176 371.436,-176"/>
<text text-anchor="middle" x="604.654" y="-343.2" font-family="Times,serif" font-size="11.00" fill="gray">Observing</text>
</g>
<!-- \\Teknoo\\States\\LifeCycle\\StatedClass\\Automated\\Assertion\\Property\\IsNotSame -->
<g id="node1" class="node"><title>\\Teknoo\\States\\LifeCycle\\StatedClass\\Automated\\Assertion\\Property\\IsNotSame</title>
<polygon fill="none" stroke="black" points="821.372,-1862 744.372,-1862 744.372,-1826 821.372,-1826 821.372,-1862"/>
<text text-anchor="middle" x="782.872" y="-1841.2" font-family="Courier,monospace" font-size="11.00">IsNotSame</text>
</g>
<!-- \\Teknoo\\States\\LifeCycle\\StatedClass\\Automated\\Assertion\\Property\\IsSame -->
<g id="node2" class="node"><title>\\Teknoo\\States\\LifeCycle\\StatedClass\\Automated\\Assertion\\Property\\IsSame</title>
<polygon fill="none" stroke="black" points="811.372,-1808 754.372,-1808 754.372,-1772 811.372,-1772 811.372,-1808"/>
<text text-anchor="middle" x="782.872" y="-1787.2" font-family="Courier,monospace" font-size="11.00">IsSame</text>
</g>
<!-- \\Teknoo\\States\\LifeCycle\\StatedClass\\Automated\\Assertion\\Property\\IsNull -->
<g id="node3" class="node"><title>\\Teknoo\\States\\LifeCycle\\StatedClass\\Automated\\Assertion\\Property\\IsNull</title>
<polygon fill="none" stroke="black" points="811.372,-1754 754.372,-1754 754.372,-1718 811.372,-1718 811.372,-1754"/>
<text text-anchor="middle" x="782.872" y="-1733.2" font-family="Courier,monospace" font-size="11.00">IsNull</text>
</g>
<!-- \\Teknoo\\States\\LifeCycle\\StatedClass\\Automated\\Assertion\\Property\\IsLessOrEqualThan -->
<g id="node4" class="node"><title>\\Teknoo\\States\\LifeCycle\\StatedClass\\Automated\\Assertion\\Property\\IsLessOrEqualThan</title>
<polygon fill="none" stroke="black" points="848.372,-1700 717.372,-1700 717.372,-1664 848.372,-1664 848.372,-1700"/>
<text text-anchor="middle" x="782.872" y="-1679.2" font-family="Courier,monospace" font-size="11.00">IsLessOrEqualThan</text>
</g>
<!-- \\Teknoo\\States\\LifeCycle\\StatedClass\\Automated\\Assertion\\Property\\IsLessThan -->
<g id="node5" class="node"><title>\\Teknoo\\States\\LifeCycle\\StatedClass\\Automated\\Assertion\\Property\\IsLessThan</title>
<polygon fill="none" stroke="black" points="824.872,-1646 740.872,-1646 740.872,-1610 824.872,-1610 824.872,-1646"/>
<text text-anchor="middle" x="782.872" y="-1625.2" font-family="Courier,monospace" font-size="11.00">IsLessThan</text>
</g>
<!-- \\Teknoo\\States\\LifeCycle\\StatedClass\\Automated\\Assertion\\Property\\IsNotInstanceOf -->
<g id="node6" class="node"><title>\\Teknoo\\States\\LifeCycle\\StatedClass\\Automated\\Assertion\\Property\\IsNotInstanceOf</title>
<polygon fill="none" stroke="black" points="841.872,-1592 723.872,-1592 723.872,-1556 841.872,-1556 841.872,-1592"/>
<text text-anchor="middle" x="782.872" y="-1571.2" font-family="Courier,monospace" font-size="11.00">IsNotInstanceOf</text>
</g>
<!-- \\Teknoo\\States\\LifeCycle\\StatedClass\\Automated\\Assertion\\Property\\IsNotEqual -->
<g id="node7" class="node"><title>\\Teknoo\\States\\LifeCycle\\StatedClass\\Automated\\Assertion\\Property\\IsNotEqual</title>
<polygon fill="none" stroke="black" points="824.872,-1538 740.872,-1538 740.872,-1502 824.872,-1502 824.872,-1538"/>
<text text-anchor="middle" x="782.872" y="-1517.2" font-family="Courier,monospace" font-size="11.00">IsNotEqual</text>
</g>
<!-- \\Teknoo\\States\\LifeCycle\\StatedClass\\Automated\\Assertion\\Property\\IsGreaterThan -->
<g id="node8" class="node"><title>\\Teknoo\\States\\LifeCycle\\StatedClass\\Automated\\Assertion\\Property\\IsGreaterThan</title>
<polygon fill="none" stroke="black" points="834.872,-1484 730.872,-1484 730.872,-1448 834.872,-1448 834.872,-1484"/>
<text text-anchor="middle" x="782.872" y="-1463.2" font-family="Courier,monospace" font-size="11.00">IsGreaterThan</text>
</g>
<!-- \\Teknoo\\States\\LifeCycle\\StatedClass\\Automated\\Assertion\\Property\\IsEqual -->
<g id="node9" class="node"><title>\\Teknoo\\States\\LifeCycle\\StatedClass\\Automated\\Assertion\\Property\\IsEqual</title>
<polygon fill="none" stroke="black" points="814.872,-1430 750.872,-1430 750.872,-1394 814.872,-1394 814.872,-1430"/>
<text text-anchor="middle" x="782.872" y="-1409.2" font-family="Courier,monospace" font-size="11.00">IsEqual</text>
</g>
<!-- \\Teknoo\\States\\LifeCycle\\StatedClass\\Automated\\Assertion\\Property\\IsNotNull -->
<g id="node10" class="node"><title>\\Teknoo\\States\\LifeCycle\\StatedClass\\Automated\\Assertion\\Property\\IsNotNull</title>
<polygon fill="none" stroke="black" points="821.372,-1376 744.372,-1376 744.372,-1340 821.372,-1340 821.372,-1376"/>
<text text-anchor="middle" x="782.872" y="-1355.2" font-family="Courier,monospace" font-size="11.00">IsNotNull</text>
</g>
<!-- \\Teknoo\\States\\LifeCycle\\StatedClass\\Automated\\Assertion\\Property\\IsInstanceOf -->
<g id="node11" class="node"><title>\\Teknoo\\States\\LifeCycle\\StatedClass\\Automated\\Assertion\\Property\\IsInstanceOf</title>
<polygon fill="none" stroke="black" points="831.872,-1322 733.872,-1322 733.872,-1286 831.872,-1286 831.872,-1322"/>
<text text-anchor="middle" x="782.872" y="-1301.2" font-family="Courier,monospace" font-size="11.00">IsInstanceOf</text>
</g>
<!-- \\Teknoo\\States\\LifeCycle\\StatedClass\\Automated\\Assertion\\Property\\IsGreaterOrEqualThan -->
<g id="node12" class="node"><title>\\Teknoo\\States\\LifeCycle\\StatedClass\\Automated\\Assertion\\Property\\IsGreaterOrEqualThan</title>
<polygon fill="none" stroke="black" points="858.872,-1268 706.872,-1268 706.872,-1232 858.872,-1232 858.872,-1268"/>
<text text-anchor="middle" x="782.872" y="-1247.2" font-family="Courier,monospace" font-size="11.00">IsGreaterOrEqualThan</text>
</g>
<!-- \\Teknoo\\States\\LifeCycle\\StatedClass\\Automated\\Assertion\\Callback -->
<g id="node13" class="node"><title>\\Teknoo\\States\\LifeCycle\\StatedClass\\Automated\\Assertion\\Callback</title>
<polygon fill="none" stroke="black" points="818.372,-1214 747.372,-1214 747.372,-1178 818.372,-1178 818.372,-1214"/>
<text text-anchor="middle" x="782.872" y="-1193.2" font-family="Courier,monospace" font-size="11.00">Callback</text>
</g>
<!-- \\Teknoo\\States\\LifeCycle\\StatedClass\\Automated\\Assertion\\AbstractAssertion -->
<g id="node14" class="node"><title>\\Teknoo\\States\\LifeCycle\\StatedClass\\Automated\\Assertion\\AbstractAssertion</title>
<polygon fill="none" stroke="black" points="522.436,-1188 391.436,-1188 391.436,-1152 522.436,-1152 522.436,-1188"/>
<text text-anchor="start" x="422.936" y="-1173.2" font-family="Courier,monospace" font-size="11.00">«abstract»</text>
<text text-anchor="start" x="399.436" y="-1161.2" font-family="Courier,monospace" font-size="11.00">AbstractAssertion</text>
</g>
<!-- \\Teknoo\\States\\LifeCycle\\StatedClass\\Automated\\Assertion\\Callback&#45;&gt;\\Teknoo\\States\\LifeCycle\\StatedClass\\Automated\\Assertion\\AbstractAssertion -->
<g id="edge1" class="edge"><title>\\Teknoo\\States\\LifeCycle\\StatedClass\\Automated\\Assertion\\Callback&#45;&gt;\\Teknoo\\States\\LifeCycle\\StatedClass\\Automated\\Assertion\\AbstractAssertion</title>
<path fill="none" stroke="black" d="M747.205,-1193.22C696.362,-1189.14 600.308,-1181.43 532.877,-1176.01"/>
<polygon fill="none" stroke="black" points="532.977,-1172.51 522.729,-1175.2 532.417,-1179.49 532.977,-1172.51"/>
</g>
<!-- \\Teknoo\\States\\LifeCycle\\StatedClass\\Automated\\Assertion\\AssertionInterface -->
<g id="node16" class="node"><title>\\Teknoo\\States\\LifeCycle\\StatedClass\\Automated\\Assertion\\AssertionInterface</title>
<polygon fill="none" stroke="black" points="206.5,-1188 68.5,-1188 68.5,-1152 206.5,-1152 206.5,-1188"/>
<text text-anchor="middle" x="137.5" y="-1167.2" font-family="Courier,monospace" font-size="11.00">AssertionInterface</text>
</g>
<!-- \\Teknoo\\States\\LifeCycle\\StatedClass\\Automated\\Assertion\\Callback&#45;&gt;\\Teknoo\\States\\LifeCycle\\StatedClass\\Automated\\Assertion\\AssertionInterface -->
<g id="edge2" class="edge"><title>\\Teknoo\\States\\LifeCycle\\StatedClass\\Automated\\Assertion\\Callback&#45;&gt;\\Teknoo\\States\\LifeCycle\\StatedClass\\Automated\\Assertion\\AssertionInterface</title>
<path fill="none" stroke="black" stroke-dasharray="1,5" d="M747.244,-1198.09C667.824,-1202.45 466.5,-1210.99 299,-1197 271.909,-1194.74 242.512,-1190.36 216.369,-1185.78"/>
<polygon fill="none" stroke="black" points="216.98,-1182.34 206.52,-1184.02 215.747,-1189.23 216.98,-1182.34"/>
</g>
<!-- \\Teknoo\\States\\LifeCycle\\StatedClass\\Automated\\Assertion\\AbstractAssertion&#45;&gt;\\Teknoo\\States\\LifeCycle\\StatedClass\\Automated\\Assertion\\AssertionInterface -->
<g id="edge3" class="edge"><title>\\Teknoo\\States\\LifeCycle\\StatedClass\\Automated\\Assertion\\AbstractAssertion&#45;&gt;\\Teknoo\\States\\LifeCycle\\StatedClass\\Automated\\Assertion\\AssertionInterface</title>
<path fill="none" stroke="black" stroke-dasharray="1,5" d="M391.315,-1170C340.821,-1170 270.441,-1170 216.757,-1170"/>
<polygon fill="none" stroke="black" points="216.595,-1166.5 206.595,-1170 216.595,-1173.5 216.595,-1166.5"/>
</g>
<!-- \\Teknoo\\States\\LifeCycle\\StatedClass\\Automated\\Assertion\\Assertion -->
<g id="node15" class="node"><title>\\Teknoo\\States\\LifeCycle\\StatedClass\\Automated\\Assertion\\Assertion</title>
<polygon fill="none" stroke="black" points="821.372,-1160 744.372,-1160 744.372,-1124 821.372,-1124 821.372,-1160"/>
<text text-anchor="middle" x="782.872" y="-1139.2" font-family="Courier,monospace" font-size="11.00">Assertion</text>
</g>
<!-- \\Teknoo\\States\\LifeCycle\\StatedClass\\Automated\\Assertion\\Assertion&#45;&gt;\\Teknoo\\States\\LifeCycle\\StatedClass\\Automated\\Assertion\\AbstractAssertion -->
<g id="edge4" class="edge"><title>\\Teknoo\\States\\LifeCycle\\StatedClass\\Automated\\Assertion\\Assertion&#45;&gt;\\Teknoo\\States\\LifeCycle\\StatedClass\\Automated\\Assertion\\AbstractAssertion</title>
<path fill="none" stroke="black" d="M744.078,-1145.27C692.512,-1149.72 598.98,-1157.81 532.91,-1163.52"/>
<polygon fill="none" stroke="black" points="532.214,-1160.07 522.552,-1164.41 532.816,-1167.04 532.214,-1160.07"/>
</g>
<!-- \\Teknoo\\States\\LifeCycle\\StatedClass\\Automated\\Assertion\\Assertion&#45;&gt;\\Teknoo\\States\\LifeCycle\\StatedClass\\Automated\\Assertion\\AssertionInterface -->
<g id="edge5" class="edge"><title>\\Teknoo\\States\\LifeCycle\\StatedClass\\Automated\\Assertion\\Assertion&#45;&gt;\\Teknoo\\States\\LifeCycle\\StatedClass\\Automated\\Assertion\\AssertionInterface</title>
<path fill="none" stroke="black" stroke-dasharray="1,5" d="M744.215,-1139.98C662.802,-1136.06 464.397,-1129.01 299,-1143 271.912,-1145.29 242.515,-1149.67 216.371,-1154.25"/>
<polygon fill="none" stroke="black" points="215.75,-1150.81 206.522,-1156.01 216.982,-1157.7 215.75,-1150.81"/>
</g>
<!-- \\Teknoo\\States\\LifeCycle\\StatedClass\\Automated\\AutomatedInterface -->
<g id="node17" class="node"><title>\\Teknoo\\States\\LifeCycle\\StatedClass\\Automated\\AutomatedInterface</title>
<polygon fill="none" stroke="black" points="851.872,-1106 713.872,-1106 713.872,-1070 851.872,-1070 851.872,-1106"/>
<text text-anchor="middle" x="782.872" y="-1085.2" font-family="Courier,monospace" font-size="11.00">AutomatedInterface</text>
</g>
<!-- \\Teknoo\\States\\Proxy\\ProxyInterface -->
<g id="node45" class="node"><title>\\Teknoo\\States\\Proxy\\ProxyInterface</title>
<ellipse fill="none" stroke="black" cx="456.936" cy="-72" rx="139.175" ry="18"/>
<text text-anchor="middle" x="456.936" y="-68.3" font-family="Times,serif" font-size="14.00" fill="gray">Teknoo\States\Proxy\ProxyInterface</text>
</g>
<!-- \\Teknoo\\States\\LifeCycle\\StatedClass\\Automated\\AutomatedInterface&#45;&gt;\\Teknoo\\States\\Proxy\\ProxyInterface -->
<g id="edge18" class="edge"><title>\\Teknoo\\States\\LifeCycle\\StatedClass\\Automated\\AutomatedInterface&#45;&gt;\\Teknoo\\States\\Proxy\\ProxyInterface</title>
<path fill="none" stroke="black" d="M713.465,-1079.53C703.253,-1075.41 693.835,-1069.48 686.872,-1061 561.114,-907.803 717.139,-341.781 614.872,-172 592.454,-134.783 550.281,-109.071 515.295,-93.0477"/>
<polygon fill="none" stroke="black" points="516.668,-89.828 506.107,-88.9828 513.836,-96.2295 516.668,-89.828"/>
</g>
<!-- \\Teknoo\\States\\LifeCycle\\StatedClass\\Automated\\AutomatedTrait -->
<g id="node18" class="node"><title>\\Teknoo\\States\\LifeCycle\\StatedClass\\Automated\\AutomatedTrait</title>
<polygon fill="none" stroke="black" points="838.372,-1052 727.372,-1052 727.372,-1016 838.372,-1016 838.372,-1052"/>
<text text-anchor="middle" x="782.872" y="-1031.2" font-family="Courier,monospace" font-size="11.00">AutomatedTrait</text>
</g>
<!-- \\Teknoo\\States\\LifeCycle\\StatedClass\\LifeCyclableInterface -->
<g id="node19" class="node"><title>\\Teknoo\\States\\LifeCycle\\StatedClass\\LifeCyclableInterface</title>
<polygon fill="none" stroke="black" points="861.872,-998 703.872,-998 703.872,-962 861.872,-962 861.872,-998"/>
<text text-anchor="middle" x="782.872" y="-977.2" font-family="Courier,monospace" font-size="11.00">LifeCyclableInterface</text>
</g>
<!-- \\Teknoo\\States\\LifeCycle\\StatedClass\\LifeCyclableInterface&#45;&gt;\\Teknoo\\States\\Proxy\\ProxyInterface -->
<g id="edge19" class="edge"><title>\\Teknoo\\States\\LifeCycle\\StatedClass\\LifeCyclableInterface&#45;&gt;\\Teknoo\\States\\Proxy\\ProxyInterface</title>
<path fill="none" stroke="black" d="M703.794,-966.81C697.389,-963.201 691.582,-958.673 686.872,-953 575.538,-818.902 705.63,-320.797 614.872,-172 592.171,-134.781 549.797,-109.015 514.798,-92.9683"/>
<polygon fill="none" stroke="black" points="516.172,-89.7488 505.611,-88.8981 513.336,-96.1488 516.172,-89.7488"/>
</g>
<!-- \\Teknoo\\States\\LifeCycle\\StatedClass\\LifeCyclableTrait -->
<g id="node20" class="node"><title>\\Teknoo\\States\\LifeCycle\\StatedClass\\LifeCyclableTrait</title>
<polygon fill="none" stroke="black" points="848.372,-944 717.372,-944 717.372,-908 848.372,-908 848.372,-944"/>
<text text-anchor="middle" x="782.872" y="-923.2" font-family="Courier,monospace" font-size="11.00">LifeCyclableTrait</text>
</g>
<!-- \\Teknoo\\States\\LifeCycle\\StatedClass\\AutomatedLifeCyclableTrait -->
<g id="node21" class="node"><title>\\Teknoo\\States\\LifeCycle\\StatedClass\\AutomatedLifeCyclableTrait</title>
<polygon fill="none" stroke="black" points="878.872,-890 686.872,-890 686.872,-854 878.872,-854 878.872,-890"/>
<text text-anchor="middle" x="782.872" y="-869.2" font-family="Courier,monospace" font-size="11.00">AutomatedLifeCyclableTrait</text>
</g>
<!-- \\Teknoo\\States\\LifeCycle\\Trace\\Trace -->
<g id="node22" class="node"><title>\\Teknoo\\States\\LifeCycle\\Trace\\Trace</title>
<polygon fill="none" stroke="black" points="809.872,-810 755.872,-810 755.872,-774 809.872,-774 809.872,-810"/>
<text text-anchor="middle" x="782.872" y="-789.2" font-family="Courier,monospace" font-size="11.00">Trace</text>
</g>
<!-- \\Teknoo\\States\\LifeCycle\\Trace\\TraceInterface -->
<g id="node24" class="node"><title>\\Teknoo\\States\\LifeCycle\\Trace\\TraceInterface</title>
<polygon fill="none" stroke="black" points="512.436,-810 401.436,-810 401.436,-774 512.436,-774 512.436,-810"/>
<text text-anchor="middle" x="456.936" y="-789.2" font-family="Courier,monospace" font-size="11.00">TraceInterface</text>
</g>
<!-- \\Teknoo\\States\\LifeCycle\\Trace\\Trace&#45;&gt;\\Teknoo\\States\\LifeCycle\\Trace\\TraceInterface -->
<g id="edge6" class="edge"><title>\\Teknoo\\States\\LifeCycle\\Trace\\Trace&#45;&gt;\\Teknoo\\States\\LifeCycle\\Trace\\TraceInterface</title>
<path fill="none" stroke="black" stroke-dasharray="1,5" d="M755.637,-792C705.391,-792 594.241,-792 522.882,-792"/>
<polygon fill="none" stroke="black" points="522.654,-788.5 512.654,-792 522.654,-795.5 522.654,-788.5"/>
</g>
<!-- \\Teknoo\\States\\LifeCycle\\Trace\\Entry -->
<g id="node23" class="node"><title>\\Teknoo\\States\\LifeCycle\\Trace\\Entry</title>
<polygon fill="none" stroke="black" points="809.872,-756 755.872,-756 755.872,-720 809.872,-720 809.872,-756"/>
<text text-anchor="middle" x="782.872" y="-735.2" font-family="Courier,monospace" font-size="11.00">Entry</text>
</g>
<!-- \\Teknoo\\States\\LifeCycle\\Trace\\EntryInterface -->
<g id="node25" class="node"><title>\\Teknoo\\States\\LifeCycle\\Trace\\EntryInterface</title>
<polygon fill="none" stroke="black" points="512.436,-756 401.436,-756 401.436,-720 512.436,-720 512.436,-756"/>
<text text-anchor="middle" x="456.936" y="-735.2" font-family="Courier,monospace" font-size="11.00">EntryInterface</text>
</g>
<!-- \\Teknoo\\States\\LifeCycle\\Trace\\Entry&#45;&gt;\\Teknoo\\States\\LifeCycle\\Trace\\EntryInterface -->
<g id="edge7" class="edge"><title>\\Teknoo\\States\\LifeCycle\\Trace\\Entry&#45;&gt;\\Teknoo\\States\\LifeCycle\\Trace\\EntryInterface</title>
<path fill="none" stroke="black" stroke-dasharray="1,5" d="M755.637,-738C705.391,-738 594.241,-738 522.882,-738"/>
<polygon fill="none" stroke="black" points="522.654,-734.5 512.654,-738 522.654,-741.5 522.654,-734.5"/>
</g>
<!-- \\Teknoo\\States\\LifeCycle\\Scenario\\Manager -->
<g id="node26" class="node"><title>\\Teknoo\\States\\LifeCycle\\Scenario\\Manager</title>
<polygon fill="none" stroke="black" points="814.872,-676 750.872,-676 750.872,-640 814.872,-640 814.872,-676"/>
<text text-anchor="middle" x="782.872" y="-655.2" font-family="Courier,monospace" font-size="11.00">Manager</text>
</g>
<!-- \\Teknoo\\States\\LifeCycle\\Scenario\\ManagerInterface -->
<g id="node32" class="node"><title>\\Teknoo\\States\\LifeCycle\\Scenario\\ManagerInterface</title>
<polygon fill="none" stroke="black" points="519.436,-676 394.436,-676 394.436,-640 519.436,-640 519.436,-676"/>
<text text-anchor="middle" x="456.936" y="-655.2" font-family="Courier,monospace" font-size="11.00">ManagerInterface</text>
</g>
<!-- \\Teknoo\\States\\LifeCycle\\Scenario\\Manager&#45;&gt;\\Teknoo\\States\\LifeCycle\\Scenario\\ManagerInterface -->
<g id="edge8" class="edge"><title>\\Teknoo\\States\\LifeCycle\\Scenario\\Manager&#45;&gt;\\Teknoo\\States\\LifeCycle\\Scenario\\ManagerInterface</title>
<path fill="none" stroke="black" stroke-dasharray="1,5" d="M750.812,-658C700.352,-658 599.264,-658 530.108,-658"/>
<polygon fill="none" stroke="black" points="529.721,-654.5 519.721,-658 529.721,-661.5 529.721,-654.5"/>
</g>
<!-- \\Teknoo\\States\\LifeCycle\\Scenario\\Scenario -->
<g id="node27" class="node"><title>\\Teknoo\\States\\LifeCycle\\Scenario\\Scenario</title>
<polygon fill="none" stroke="black" points="818.372,-622 747.372,-622 747.372,-586 818.372,-586 818.372,-622"/>
<text text-anchor="middle" x="782.872" y="-601.2" font-family="Courier,monospace" font-size="11.00">Scenario</text>
</g>
<!-- \\Teknoo\\States\\LifeCycle\\Scenario\\ScenarioInterface -->
<g id="node31" class="node"><title>\\Teknoo\\States\\LifeCycle\\Scenario\\ScenarioInterface</title>
<polygon fill="none" stroke="black" points="522.436,-622 391.436,-622 391.436,-586 522.436,-586 522.436,-622"/>
<text text-anchor="middle" x="456.936" y="-601.2" font-family="Courier,monospace" font-size="11.00">ScenarioInterface</text>
</g>
<!-- \\Teknoo\\States\\LifeCycle\\Scenario\\Scenario&#45;&gt;\\Teknoo\\States\\LifeCycle\\Scenario\\ScenarioInterface -->
<g id="edge9" class="edge"><title>\\Teknoo\\States\\LifeCycle\\Scenario\\Scenario&#45;&gt;\\Teknoo\\States\\LifeCycle\\Scenario\\ScenarioInterface</title>
<path fill="none" stroke="black" stroke-dasharray="1,5" d="M747.205,-604C696.362,-604 600.308,-604 532.877,-604"/>
<polygon fill="none" stroke="black" points="532.729,-600.5 522.729,-604 532.729,-607.5 532.729,-600.5"/>
</g>
<!-- \\Teknoo\\States\\LifeCycle\\Scenario\\ScenarioBuilder -->
<g id="node28" class="node"><title>\\Teknoo\\States\\LifeCycle\\Scenario\\ScenarioBuilder</title>
<polygon fill="none" stroke="black" points="515.936,-568 397.936,-568 397.936,-532 515.936,-532 515.936,-568"/>
<text text-anchor="middle" x="456.936" y="-547.2" font-family="Courier,monospace" font-size="11.00">ScenarioBuilder</text>
</g>
<!-- \\Teknoo\\States\\LifeCycle\\Scenario\\ScenarioBuilderInterface -->
<g id="node30" class="node"><title>\\Teknoo\\States\\LifeCycle\\Scenario\\ScenarioBuilderInterface</title>
<polygon fill="none" stroke="black" points="227,-568 48,-568 48,-532 227,-532 227,-568"/>
<text text-anchor="middle" x="137.5" y="-547.2" font-family="Courier,monospace" font-size="11.00">ScenarioBuilderInterface</text>
</g>
<!-- \\Teknoo\\States\\LifeCycle\\Scenario\\ScenarioBuilder&#45;&gt;\\Teknoo\\States\\LifeCycle\\Scenario\\ScenarioBuilderInterface -->
<g id="edge10" class="edge"><title>\\Teknoo\\States\\LifeCycle\\Scenario\\ScenarioBuilder&#45;&gt;\\Teknoo\\States\\LifeCycle\\Scenario\\ScenarioBuilderInterface</title>
<path fill="none" stroke="black" stroke-dasharray="1,5" d="M397.713,-550C352.902,-550 289.934,-550 237.281,-550"/>
<polygon fill="none" stroke="black" points="237.237,-546.5 227.237,-550 237.237,-553.5 237.237,-546.5"/>
</g>
<!-- \\Teknoo\\States\\LifeCycle\\Scenario\\ScenarioYamlBuilder -->
<g id="node29" class="node"><title>\\Teknoo\\States\\LifeCycle\\Scenario\\ScenarioYamlBuilder</title>
<polygon fill="none" stroke="black" points="855.372,-568 710.372,-568 710.372,-532 855.372,-532 855.372,-568"/>
<text text-anchor="middle" x="782.872" y="-547.2" font-family="Courier,monospace" font-size="11.00">ScenarioYamlBuilder</text>
</g>
<!-- \\Teknoo\\States\\LifeCycle\\Scenario\\ScenarioYamlBuilder&#45;&gt;\\Teknoo\\States\\LifeCycle\\Scenario\\ScenarioBuilder -->
<g id="edge11" class="edge"><title>\\Teknoo\\States\\LifeCycle\\Scenario\\ScenarioYamlBuilder&#45;&gt;\\Teknoo\\States\\LifeCycle\\Scenario\\ScenarioBuilder</title>
<path fill="none" stroke="black" d="M709.98,-550C655.171,-550 580.184,-550 526.274,-550"/>
<polygon fill="none" stroke="black" points="526.124,-546.5 516.124,-550 526.124,-553.5 526.124,-546.5"/>
</g>
<!-- \\Teknoo\\States\\LifeCycle\\Tokenization\\Tokenizer -->
<g id="node33" class="node"><title>\\Teknoo\\States\\LifeCycle\\Tokenization\\Tokenizer</title>
<polygon fill="none" stroke="black" points="821.372,-488 744.372,-488 744.372,-452 821.372,-452 821.372,-488"/>
<text text-anchor="middle" x="782.872" y="-467.2" font-family="Courier,monospace" font-size="11.00">Tokenizer</text>
</g>
<!-- \\Teknoo\\States\\LifeCycle\\Tokenization\\TokenizerInterface -->
<g id="node34" class="node"><title>\\Teknoo\\States\\LifeCycle\\Tokenization\\TokenizerInterface</title>
<polygon fill="none" stroke="black" points="525.936,-488 387.936,-488 387.936,-452 525.936,-452 525.936,-488"/>
<text text-anchor="middle" x="456.936" y="-467.2" font-family="Courier,monospace" font-size="11.00">TokenizerInterface</text>
</g>
<!-- \\Teknoo\\States\\LifeCycle\\Tokenization\\Tokenizer&#45;&gt;\\Teknoo\\States\\LifeCycle\\Tokenization\\TokenizerInterface -->
<g id="edge12" class="edge"><title>\\Teknoo\\States\\LifeCycle\\Tokenization\\Tokenizer&#45;&gt;\\Teknoo\\States\\LifeCycle\\Tokenization\\TokenizerInterface</title>
<path fill="none" stroke="black" stroke-dasharray="1,5" d="M744.078,-470C693.384,-470 602.129,-470 536.282,-470"/>
<polygon fill="none" stroke="black" points="535.942,-466.5 525.942,-470 535.942,-473.5 535.942,-466.5"/>
</g>
<!-- \\Teknoo\\States\\LifeCycle\\Event\\Event -->
<g id="node35" class="node"><title>\\Teknoo\\States\\LifeCycle\\Event\\Event</title>
<polygon fill="none" stroke="black" points="809.872,-408 755.872,-408 755.872,-372 809.872,-372 809.872,-408"/>
<text text-anchor="middle" x="782.872" y="-387.2" font-family="Courier,monospace" font-size="11.00">Event</text>
</g>
<!-- \\Teknoo\\States\\LifeCycle\\Event\\EventInterface -->
<g id="node36" class="node"><title>\\Teknoo\\States\\LifeCycle\\Event\\EventInterface</title>
<polygon fill="none" stroke="black" points="512.436,-408 401.436,-408 401.436,-372 512.436,-372 512.436,-408"/>
<text text-anchor="middle" x="456.936" y="-387.2" font-family="Courier,monospace" font-size="11.00">EventInterface</text>
</g>
<!-- \\Teknoo\\States\\LifeCycle\\Event\\Event&#45;&gt;\\Teknoo\\States\\LifeCycle\\Event\\EventInterface -->
<g id="edge14" class="edge"><title>\\Teknoo\\States\\LifeCycle\\Event\\Event&#45;&gt;\\Teknoo\\States\\LifeCycle\\Event\\EventInterface</title>
<path fill="none" stroke="black" stroke-dasharray="1,5" d="M755.637,-390C705.391,-390 594.241,-390 522.882,-390"/>
<polygon fill="none" stroke="black" points="522.654,-386.5 512.654,-390 522.654,-393.5 522.654,-386.5"/>
</g>
<!-- \\Symfony\\Component\\EventDispatcher\\Event -->
<g id="node44" class="node"><title>\\Symfony\\Component\\EventDispatcher\\Event</title>
<ellipse fill="none" stroke="black" cx="456.936" cy="-18" rx="157.872" ry="18"/>
<text text-anchor="middle" x="456.936" y="-14.3" font-family="Times,serif" font-size="14.00" fill="gray">\Symfony\ComponentventDispatchervent</text>
</g>
<!-- \\Teknoo\\States\\LifeCycle\\Event\\Event&#45;&gt;\\Symfony\\Component\\EventDispatcher\\Event -->
<g id="edge13" class="edge"><title>\\Teknoo\\States\\LifeCycle\\Event\\Event&#45;&gt;\\Symfony\\Component\\EventDispatcher\\Event</title>
<path fill="none" stroke="black" d="M755.543,-388.64C734.051,-386.096 704.458,-379.074 686.872,-360 589.528,-254.416 719.141,-143.752 614.872,-45 609.815,-40.2102 604.233,-36.1018 598.278,-32.5868"/>
<polygon fill="none" stroke="black" points="599.783,-29.4236 589.306,-27.8516 596.516,-35.6144 599.783,-29.4236"/>
</g>
<!-- \\Teknoo\\States\\LifeCycle\\Observing\\Observed -->
<g id="node37" class="node"><title>\\Teknoo\\States\\LifeCycle\\Observing\\Observed</title>
<polygon fill="none" stroke="black" points="818.372,-328 747.372,-328 747.372,-292 818.372,-292 818.372,-328"/>
<text text-anchor="middle" x="782.872" y="-307.2" font-family="Courier,monospace" font-size="11.00">Observed</text>
</g>
<!-- \\Teknoo\\States\\LifeCycle\\Observing\\ObservedInterface -->
<g id="node42" class="node"><title>\\Teknoo\\States\\LifeCycle\\Observing\\ObservedInterface</title>
<polygon fill="none" stroke="black" points="522.436,-328 391.436,-328 391.436,-292 522.436,-292 522.436,-328"/>
<text text-anchor="middle" x="456.936" y="-307.2" font-family="Courier,monospace" font-size="11.00">ObservedInterface</text>
</g>
<!-- \\Teknoo\\States\\LifeCycle\\Observing\\Observed&#45;&gt;\\Teknoo\\States\\LifeCycle\\Observing\\ObservedInterface -->
<g id="edge15" class="edge"><title>\\Teknoo\\States\\LifeCycle\\Observing\\Observed&#45;&gt;\\Teknoo\\States\\LifeCycle\\Observing\\ObservedInterface</title>
<path fill="none" stroke="black" stroke-dasharray="1,5" d="M747.205,-310C696.362,-310 600.308,-310 532.877,-310"/>
<polygon fill="none" stroke="black" points="532.729,-306.5 522.729,-310 532.729,-313.5 532.729,-306.5"/>
</g>
<!-- \\Teknoo\\States\\LifeCycle\\Observing\\ObservedFactory -->
<g id="node38" class="node"><title>\\Teknoo\\States\\LifeCycle\\Observing\\ObservedFactory</title>
<polygon fill="none" stroke="black" points="841.872,-274 723.872,-274 723.872,-238 841.872,-238 841.872,-274"/>
<text text-anchor="middle" x="782.872" y="-253.2" font-family="Courier,monospace" font-size="11.00">ObservedFactory</text>
</g>
<!-- \\Teknoo\\States\\LifeCycle\\Observing\\ObservedFactoryInterface -->
<g id="node40" class="node"><title>\\Teknoo\\States\\LifeCycle\\Observing\\ObservedFactoryInterface</title>
<polygon fill="none" stroke="black" points="546.436,-274 367.436,-274 367.436,-238 546.436,-238 546.436,-274"/>
<text text-anchor="middle" x="456.936" y="-253.2" font-family="Courier,monospace" font-size="11.00">ObservedFactoryInterface</text>
</g>
<!-- \\Teknoo\\States\\LifeCycle\\Observing\\ObservedFactory&#45;&gt;\\Teknoo\\States\\LifeCycle\\Observing\\ObservedFactoryInterface -->
<g id="edge16" class="edge"><title>\\Teknoo\\States\\LifeCycle\\Observing\\ObservedFactory&#45;&gt;\\Teknoo\\States\\LifeCycle\\Observing\\ObservedFactoryInterface</title>
<path fill="none" stroke="black" stroke-dasharray="1,5" d="M723.585,-256C677.199,-256 611.241,-256 556.654,-256"/>
<polygon fill="none" stroke="black" points="556.601,-252.5 546.601,-256 556.601,-259.5 556.601,-252.5"/>
</g>
<!-- \\Teknoo\\States\\LifeCycle\\Observing\\Observer -->
<g id="node39" class="node"><title>\\Teknoo\\States\\LifeCycle\\Observing\\Observer</title>
<polygon fill="none" stroke="black" points="818.372,-220 747.372,-220 747.372,-184 818.372,-184 818.372,-220"/>
<text text-anchor="middle" x="782.872" y="-199.2" font-family="Courier,monospace" font-size="11.00">Observer</text>
</g>
<!-- \\Teknoo\\States\\LifeCycle\\Observing\\ObserverInterface -->
<g id="node41" class="node"><title>\\Teknoo\\States\\LifeCycle\\Observing\\ObserverInterface</title>
<polygon fill="none" stroke="black" points="522.436,-220 391.436,-220 391.436,-184 522.436,-184 522.436,-220"/>
<text text-anchor="middle" x="456.936" y="-199.2" font-family="Courier,monospace" font-size="11.00">ObserverInterface</text>
</g>
<!-- \\Teknoo\\States\\LifeCycle\\Observing\\Observer&#45;&gt;\\Teknoo\\States\\LifeCycle\\Observing\\ObserverInterface -->
<g id="edge17" class="edge"><title>\\Teknoo\\States\\LifeCycle\\Observing\\Observer&#45;&gt;\\Teknoo\\States\\LifeCycle\\Observing\\ObserverInterface</title>
<path fill="none" stroke="black" stroke-dasharray="1,5" d="M747.205,-202C696.362,-202 600.308,-202 532.877,-202"/>
<polygon fill="none" stroke="black" points="532.729,-198.5 522.729,-202 532.729,-205.5 532.729,-198.5"/>
</g>
<!-- \\Teknoo\\States\\LifeCycle\\Generator -->
<g id="node43" class="node"><title>\\Teknoo\\States\\LifeCycle\\Generator</title>
<polygon fill="none" stroke="black" points="821.372,-166 744.372,-166 744.372,-130 821.372,-130 821.372,-166"/>
<text text-anchor="middle" x="782.872" y="-145.2" font-family="Courier,monospace" font-size="11.00">Generator</text>
</g>
</g>
</svg>
